<svg xmlns="http://www.w3.org/2000/svg" xmlns:xlink="http://www.w3.org/1999/xlink" width="450" zoomAndPan="magnify" viewBox="0 0 337.5 187.499995" height="250" preserveAspectRatio="xMidYMid meet" version="1.0"><defs><clipPath id="4ef0b93b22"><path d="M 0.199219 97.90625 L 92.597656 97.90625 L 92.597656 187 L 0.199219 187 Z M 0.199219 97.90625 " clip-rule="nonzero"/></clipPath><clipPath id="c8c35d286f"><path d="M 0.199219 103 L 81 103 L 81 187 L 0.199219 187 Z M 0.199219 103 " clip-rule="nonzero"/></clipPath><clipPath id="60f5763fcf"><path d="M 0.199219 1 L 94 1 L 94 73 L 0.199219 73 Z M 0.199219 1 " clip-rule="nonzero"/></clipPath><clipPath id="12f5ca625c"><path d="M 0.199219 40 L 8 40 L 8 49 L 0.199219 49 Z M 0.199219 40 " clip-rule="nonzero"/></clipPath><clipPath id="b4ea9eea94"><path d="M 169.257812 97.90625 L 276.382812 97.90625 L 276.382812 172.816406 L 169.257812 172.816406 Z M 169.257812 97.90625 " clip-rule="nonzero"/></clipPath></defs><g clip-path="url(#4ef0b93b22)"><path fill="#29bbce" d="M -5.554688 97.898438 C 4.820312 100.835938 3.835938 117.761719 7.640625 124.796875 C 12.710938 134.164062 24.894531 131.410156 30.507812 139.398438 C 37.835938 149.832031 29.519531 160.949219 40.226562 171.769531 C 43.757812 175.339844 48.503906 177.609375 53.382812 178.699219 C 54.113281 178.863281 54.851562 179 55.59375 179.097656 C 62.128906 179.945312 68.894531 179.105469 75.339844 180.621094 C 82.742188 182.367188 100.660156 191.191406 92.699219 201.25 C 84.546875 211.546875 55.523438 209.121094 44.273438 207.632812 C 32.421875 206.066406 14.003906 209.667969 3.914062 203.429688 C -8.367188 195.835938 -8.925781 165.996094 -8.417969 154.214844 C -8.144531 147.8125 -6.652344 141.515625 -6.480469 135.09375 C -6.277344 127.363281 -8.261719 118.765625 -6.207031 111.210938 " fill-opacity="1" fill-rule="evenodd"/></g><g clip-path="url(#c8c35d286f)"><path fill="#80dae6" d="M 2.84375 133.515625 C 6.339844 140.253906 14.292969 144.214844 18.113281 150.980469 C 22.058594 157.976562 20.378906 166.371094 24.28125 173.519531 C 25.828125 176.351562 27.957031 178.707031 30.78125 180.308594 C 36.195312 183.382812 61.289062 189.121094 57.992188 198.808594 C 55.097656 207.324219 35.886719 204.507812 28.871094 204.351562 C 6.566406 203.847656 -5.601562 211.902344 -5.539062 185.617188 L -5.949219 103.242188 C -3.683594 105.261719 -2.328125 107.726562 -1.472656 110.425781 C 1.257812 115.140625 4.765625 121.429688 7.710938 124.148438 C 8.46875 124.851562 9.460938 125.21875 10.621094 125.46875 C 11.898438 125.746094 13.367188 125.875 14.972656 126.066406 C 20.003906 126.664062 26.332031 127.835938 32.4375 135.339844 C 36.5 140.339844 37.789062 146.578125 39.222656 152.714844 C 40.597656 158.613281 42.105469 164.421875 46.660156 168.804688 C 52.695312 174.601562 59.921875 177.050781 66.175781 180.496094 C 72.648438 184.0625 78.117188 188.652344 80.386719 198.734375 C 80.472656 199.117188 80.230469 199.496094 79.847656 199.582031 C 79.464844 199.667969 79.085938 199.425781 79 199.042969 C 76.847656 189.472656 71.636719 185.125 65.492188 181.742188 C 59.132812 178.238281 51.808594 175.722656 45.679688 169.828125 C 40.914062 165.246094 39.273438 159.207031 37.835938 153.039062 C 36.453125 147.113281 35.261719 141.066406 31.335938 136.238281 C 25.558594 129.136719 19.566406 128.042969 14.804688 127.476562 C 13.148438 127.277344 11.636719 127.140625 10.320312 126.855469 C 8.890625 126.546875 7.683594 126.058594 6.746094 125.195312 C 4.484375 123.105469 1.882812 118.953125 -0.457031 114.980469 C 0.378906 120.519531 0.21875 126.511719 1.976562 131.507812 C 1.988281 131.546875 2 131.582031 2.011719 131.617188 C 5.46875 133.132812 9.019531 134.519531 11.882812 136.925781 C 16.890625 141.128906 20.226562 146.683594 23.535156 152.261719 C 26.765625 157.710938 29.960938 163.183594 34.773438 167.367188 C 40.167969 172.058594 45.421875 174.957031 50.15625 177.980469 C 57.425781 182.628906 63.488281 187.570312 67.070312 199.402344 C 67.183594 199.777344 66.972656 200.175781 66.597656 200.289062 C 66.21875 200.402344 65.824219 200.191406 65.710938 199.8125 C 62.257812 188.40625 56.398438 183.660156 49.390625 179.179688 C 44.605469 176.117188 39.296875 173.183594 33.839844 168.4375 C 28.914062 164.15625 25.621094 158.566406 22.3125 152.988281 C 19.085938 147.542969 15.851562 142.113281 10.96875 138.011719 C 8.59375 136.015625 5.726562 134.753906 2.84375 133.515625 Z M 2.84375 133.515625 " fill-opacity="1" fill-rule="evenodd"/></g><path fill="#80b8e6" d="M 262.570312 25.769531 C 287.582031 33.738281 296.53125 5.253906 323.070312 15.886719 C 337.324219 21.59375 337.402344 47.382812 321.503906 66.421875 C 300.0625 89.167969 297.226562 47.921875 266.175781 57.910156 C 235.128906 67.894531 214.910156 0.0078125 262.570312 25.769531 Z M 262.570312 25.769531 " fill-opacity="1" fill-rule="nonzero"/><path fill="#a7d8df" d="M 90.945312 32.023438 C 84.039062 38.875 74.511719 41.46875 65.136719 42.738281 C 61.027344 43.292969 56.550781 43.898438 53.160156 46.484375 C 49.902344 48.972656 48.78125 52.8125 48.15625 56.6875 C 47.417969 61.285156 47.003906 65.949219 43.851562 69.648438 C 40.855469 73.164062 36.101562 74.921875 31.667969 73.164062 C 29.519531 72.3125 27.65625 70.679688 26.8125 68.5 C 25.898438 66.136719 26.152344 63.519531 26.011719 61.039062 C 25.800781 57.265625 24.289062 54.257812 20.707031 52.730469 C 17.140625 51.210938 13.097656 51.246094 9.574219 49.589844 C 5.234375 47.554688 2.703125 42.417969 3.902344 37.75 C 4.550781 35.222656 6.25 33.242188 8.777344 32.457031 C 11.097656 31.734375 13.597656 31.910156 15.992188 32.003906 C 19.355469 32.132812 23.777344 31.902344 25.882812 28.824219 C 27.011719 27.175781 26.984375 25.160156 26.773438 23.257812 C 26.289062 18.890625 25.796875 18.226562 25.898438 14.566406 C 25.957031 12.429688 26.089844 9.285156 28.269531 6.691406 C 28.832031 6.023438 30.417969 4.132812 32.984375 3.859375 C 34.460938 3.738281 35.828125 4.0625 37.09375 4.835938 C 39.003906 5.980469 38.855469 7.246094 40.609375 8.359375 C 43.058594 9.910156 46.054688 9.148438 46.308594 9.082031 C 48.6875 8.4375 48.917969 6.917969 51.777344 5.335938 C 53.570312 4.355469 55.480469 3.722656 57.503906 3.4375 C 59.578125 3.128906 61.644531 3.171875 63.703125 3.566406 C 65.761719 3.960938 67.699219 4.683594 69.507812 5.738281 C 71.460938 6.894531 73.015625 8.417969 74.390625 10.207031 C 75.761719 11.996094 77.105469 13.710938 79.117188 14.820312 C 83.027344 16.976562 87.78125 16.90625 91.550781 19.378906 C 93.683594 20.78125 95.328125 22.980469 94.933594 25.644531 C 94.5625 28.164062 92.691406 30.289062 90.945312 32.023438 Z M 90.945312 32.023438 " fill-opacity="1" fill-rule="nonzero"/><g clip-path="url(#60f5763fcf)"><path fill="#53c3c3" d="M 89.941406 19.421875 C 85.839844 16.722656 80.257812 16.777344 76.683594 13.214844 C 74.890625 11.429688 73.824219 9.058594 72.0625 7.234375 C 70.75 5.890625 69.253906 4.789062 67.578125 3.933594 C 65.792969 3.019531 63.90625 2.398438 61.921875 2.070312 C 59.941406 1.746094 57.953125 1.730469 55.964844 2.027344 C 54.371094 2.265625 52.386719 2.605469 50.269531 3.9375 C 47.984375 5.375 47.710938 6.632812 45.648438 7.121094 C 43.117188 7.726562 40.964844 6.445312 40.8125 6.351562 C 39.992188 5.839844 39.324219 5.179688 38.808594 4.367188 C 38.496094 3.753906 38.085938 3.21875 37.574219 2.757812 C 35.484375 0.902344 32.089844 0.890625 29.90625 1.867188 C 25.910156 3.660156 24.570312 9.449219 24.539062 13.265625 C 24.515625 16.152344 25.058594 19.023438 24.988281 21.90625 C 24.917969 24.769531 23.457031 26.867188 20.71875 27.757812 C 16.207031 29.21875 11.523438 27.128906 6.976562 28.167969 C 2.71875 29.144531 0.5625 33.261719 0.871094 37.40625 C 0.945312 38.371094 1.136719 39.3125 1.453125 40.226562 C 1.765625 41.140625 2.191406 42.003906 2.726562 42.808594 C 3.261719 43.617188 3.890625 44.34375 4.613281 44.988281 C 5.335938 45.632812 6.128906 46.179688 6.992188 46.621094 C 10.667969 48.476562 15.085938 48.550781 18.589844 50.769531 C 23.714844 54.015625 21.160156 60.074219 22.195312 64.960938 C 22.980469 68.652344 26.132812 71.28125 29.761719 72.03125 C 33.953125 72.898438 38.113281 70.910156 40.8125 67.75 C 43.8125 64.242188 44.457031 59.757812 45.414062 55.40625 C 45.957031 52.945312 46.660156 50.433594 48.164062 48.363281 C 49.617188 46.375 51.71875 45.039062 54.035156 44.257812 C 58.546875 42.730469 63.433594 42.945312 68.105469 42.320312 C 72.96875 41.671875 77.792969 40.414062 82.21875 38.261719 C 86.269531 36.292969 90.785156 33.328125 93.058594 29.324219 C 95.242188 25.484375 93.382812 21.683594 89.941406 19.421875 Z M 89.027344 33.015625 C 81.742188 39.464844 72.082031 41.511719 62.648438 42.25 C 58.515625 42.570312 54.011719 42.917969 50.480469 45.308594 C 47.082031 47.605469 45.746094 51.378906 44.902344 55.210938 C 43.898438 59.757812 43.222656 64.394531 39.859375 67.90625 C 36.667969 71.246094 31.824219 72.730469 27.496094 70.722656 C 25.398438 69.753906 23.632812 68.015625 22.917969 65.792969 C 22.136719 63.378906 22.539062 60.78125 22.542969 58.296875 C 22.546875 54.519531 21.210938 51.429688 17.722656 49.703125 C 14.25 47.980469 10.207031 47.785156 6.785156 45.933594 C 2.566406 43.652344 0.335938 38.382812 1.800781 33.789062 C 2.59375 31.304688 4.402344 29.421875 6.96875 28.78125 C 9.328125 28.191406 11.8125 28.507812 14.199219 28.738281 C 17.550781 29.0625 21.976562 29.078125 24.253906 26.128906 C 25.472656 24.546875 25.5625 22.53125 25.460938 20.617188 C 25.230469 16.234375 24.773438 15.542969 25.085938 11.894531 C 25.265625 9.765625 25.578125 6.632812 27.902344 4.167969 C 28.503906 3.53125 30.195312 1.734375 32.773438 1.609375 C 34.253906 1.566406 35.601562 1.96875 36.816406 2.8125 C 38.664062 4.066406 38.4375 5.324219 40.128906 6.53125 C 42.484375 8.21875 45.519531 7.628906 45.773438 7.574219 C 48.191406 7.070312 48.507812 5.566406 51.453125 4.148438 C 53.296875 3.269531 55.238281 2.746094 57.277344 2.578125 C 59.363281 2.386719 61.425781 2.550781 63.457031 3.058594 C 65.492188 3.570312 67.382812 4.402344 69.128906 5.554688 C 71.015625 6.820312 72.476562 8.433594 73.746094 10.296875 C 75.015625 12.160156 76.257812 13.949219 78.203125 15.167969 C 81.984375 17.542969 86.734375 17.746094 90.355469 20.429688 C 92.40625 21.945312 93.921875 24.234375 93.375 26.875 C 92.863281 29.371094 90.871094 31.382812 89.027344 33.015625 Z M 89.027344 33.015625 " fill-opacity="1" fill-rule="nonzero"/></g><path fill="#53c3c3" d="M 15.46875 27.527344 C 17.496094 27.867188 20.039062 27.214844 21.792969 26.167969 C 23.457031 25.175781 23.867188 23.324219 23.878906 21.515625 C 23.878906 21.164062 23.285156 20.824219 23.269531 21.28125 C 23.195312 23.230469 22.796875 24.910156 20.902344 25.8125 C 19.109375 26.664062 17.285156 26.753906 15.382812 27.144531 C 15.164062 27.1875 15.3125 27.503906 15.46875 27.527344 Z M 15.46875 27.527344 " fill-opacity="1" fill-rule="nonzero"/><path fill="#53c3c3" d="M 23.492188 20.148438 C 23.558594 19.878906 23.566406 19.605469 23.511719 19.332031 C 23.480469 19.003906 23.457031 18.667969 23.398438 18.34375 C 23.34375 18.019531 22.847656 17.867188 22.867188 18.289062 C 22.894531 18.867188 22.917969 19.597656 23.179688 20.117188 C 23.234375 20.222656 23.441406 20.300781 23.492188 20.148438 Z M 23.492188 20.148438 " fill-opacity="1" fill-rule="nonzero"/><path fill="#53c3c3" d="M 89.109375 21.546875 C 91.15625 22.78125 91.9375 25.269531 91.394531 27.535156 C 90.925781 29.488281 89.410156 30.261719 88.140625 31.628906 C 87.882812 31.910156 88.371094 32.492188 88.660156 32.179688 C 89.515625 31.25 90.667969 30.589844 91.351562 29.511719 C 91.929688 28.546875 92.210938 27.503906 92.195312 26.378906 C 92.195312 24.296875 91.234375 21.96875 89.226562 21.09375 C 88.9375 20.96875 88.910156 21.425781 89.109375 21.546875 Z M 89.109375 21.546875 " fill-opacity="1" fill-rule="nonzero"/><path fill="#53c3c3" d="M 86.503906 33.296875 C 86.113281 33.320312 85.734375 33.617188 85.410156 33.8125 C 85.039062 34.035156 84.667969 34.273438 84.316406 34.527344 C 83.980469 34.773438 84.378906 35.449219 84.734375 35.21875 C 85.121094 34.972656 85.5 34.707031 85.878906 34.445312 C 86.203125 34.21875 86.585938 34.023438 86.785156 33.675781 C 86.886719 33.496094 86.671875 33.289062 86.503906 33.296875 Z M 86.503906 33.296875 " fill-opacity="1" fill-rule="nonzero"/><path fill="#53c3c3" d="M 26.667969 68.789062 C 30.898438 72.851562 37.246094 69.496094 40.726562 66.230469 C 41.03125 65.945312 40.5 65.3125 40.164062 65.628906 C 36.425781 69.128906 31.667969 71.207031 26.863281 68.457031 C 26.632812 68.324219 26.5 68.625 26.667969 68.789062 Z M 26.667969 68.789062 " fill-opacity="1" fill-rule="nonzero"/><path fill="#53c3c3" d="M 26.097656 67.765625 C 25.925781 67.558594 25.71875 67.382812 25.558594 67.167969 C 25.402344 66.949219 25.28125 66.714844 25.195312 66.460938 C 25.050781 66.066406 24.472656 66.121094 24.621094 66.578125 C 24.816406 67.191406 25.289062 67.949219 25.925781 68.179688 C 26.210938 68.285156 26.226562 67.921875 26.097656 67.765625 Z M 26.097656 67.765625 " fill-opacity="1" fill-rule="nonzero"/><path fill="#53c3c3" d="M 66.078125 1.492188 C 67.949219 2.019531 69.652344 2.867188 71.191406 4.046875 C 72.730469 5.226562 73.996094 6.644531 74.984375 8.308594 C 75.21875 8.710938 75.714844 8.414062 75.480469 8.011719 C 74.46875 6.246094 73.144531 4.757812 71.511719 3.539062 C 69.875 2.324219 68.066406 1.484375 66.082031 1.015625 C 65.808594 0.949219 65.863281 1.433594 66.078125 1.492188 Z M 66.078125 1.492188 " fill-opacity="1" fill-rule="nonzero"/><path fill="#53c3c3" d="M 63.84375 0.585938 C 63.355469 0.375 62.847656 0.234375 62.320312 0.164062 C 61.863281 0.101562 61.332031 0.0117188 60.90625 0.214844 C 60.679688 0.320312 60.847656 0.707031 61.03125 0.761719 C 61.441406 0.882812 61.878906 0.824219 62.300781 0.871094 C 62.800781 0.933594 63.289062 1.039062 63.769531 1.191406 C 64.1875 1.316406 64.152344 0.71875 63.84375 0.585938 Z M 63.84375 0.585938 " fill-opacity="1" fill-rule="nonzero"/><g clip-path="url(#12f5ca625c)"><path fill="#53c3c3" d="M 0.253906 40.179688 C 0.578125 43.933594 4.066406 47.269531 7.390625 48.636719 C 7.78125 48.796875 7.765625 48.175781 7.464844 48.039062 C 5.820312 47.34375 4.398438 46.335938 3.195312 45.019531 C 1.902344 43.578125 1.222656 41.933594 0.496094 40.167969 C 0.445312 40.042969 0.238281 39.992188 0.253906 40.179688 Z M 0.253906 40.179688 " fill-opacity="1" fill-rule="nonzero"/></g><path fill="#53c3c3" d="M 8.625 49.390625 C 9.179688 49.601562 9.75 49.730469 10.34375 49.769531 C 10.832031 49.8125 10.628906 49.082031 10.257812 49.007812 C 9.699219 48.882812 9.136719 48.851562 8.570312 48.910156 C 8.304688 48.945312 8.46875 49.324219 8.625 49.390625 Z M 8.625 49.390625 " fill-opacity="1" fill-rule="nonzero"/><g clip-path="url(#b4ea9eea94)"><path fill="#ffffff" d="M 240.085938 172.707031 C 241.316406 172.695312 242.554688 172.613281 243.789062 172.410156 C 247.109375 171.863281 250.4375 170.398438 252.667969 167.691406 C 255.003906 164.855469 255.730469 161.226562 256.148438 157.878906 C 256.5625 154.546875 256.757812 151.289062 257.933594 148.476562 C 259.222656 145.398438 261.683594 142.816406 264.332031 140.410156 C 266.984375 137.996094 269.910156 135.640625 272.164062 132.550781 C 273.953125 130.097656 275.230469 127.257812 275.808594 124.257812 C 276.386719 121.253906 276.253906 118.113281 275.347656 115.175781 C 274.4375 112.234375 272.75 109.53125 270.445312 107.457031 C 268.136719 105.382812 265.234375 103.976562 262.140625 103.519531 C 259.28125 103.101562 256.417969 103.5 253.738281 104.234375 C 251.0625 104.96875 248.554688 106.027344 246.082031 107.007812 C 243.613281 107.988281 241.160156 108.898438 238.664062 109.367188 C 236.167969 109.832031 233.597656 109.84375 231.289062 109.105469 C 228.003906 108.046875 225.25 105.464844 222.300781 103 C 220.820312 101.765625 219.25 100.546875 217.457031 99.597656 C 215.65625 98.652344 213.625 97.984375 211.492188 97.96875 C 209.066406 97.949219 206.742188 98.777344 204.769531 100.027344 C 202.800781 101.273438 201.179688 102.917969 199.777344 104.65625 C 196.972656 108.128906 194.964844 111.992188 192.132812 114.941406 C 189.59375 117.578125 186.339844 119.574219 183.082031 121.679688 C 179.824219 123.789062 176.460938 126.09375 173.980469 129.347656 C 170.53125 133.875 169.257812 139.769531 169.964844 145.339844 C 170.667969 150.894531 173.25 156.0625 176.792969 160.308594 C 179.71875 163.820312 183.347656 166.777344 187.480469 168.8125 C 191.609375 170.84375 196.230469 171.933594 200.863281 171.800781 C 204.765625 171.6875 208.453125 170.746094 212.054688 170.410156 C 219.242188 169.734375 226.574219 171.304688 234.035156 172.253906 C 235.617188 172.453125 237.230469 172.628906 238.863281 172.6875 C 239.269531 172.699219 239.679688 172.707031 240.085938 172.707031 Z M 240.074219 170.425781 C 239.699219 170.425781 239.320312 170.417969 238.9375 170.410156 C 237.417969 170.355469 235.875 170.191406 234.328125 169.996094 C 226.996094 169.066406 219.496094 167.425781 211.839844 168.144531 C 208 168.507812 204.363281 169.421875 200.796875 169.527344 C 196.570312 169.648438 192.304688 168.652344 188.488281 166.773438 C 184.671875 164.894531 181.285156 162.136719 178.546875 158.855469 C 175.238281 154.890625 172.867188 150.09375 172.226562 145.054688 C 171.589844 140.023438 172.765625 134.703125 175.796875 130.722656 C 177.988281 127.847656 181.105469 125.667969 184.324219 123.585938 C 187.546875 121.503906 190.96875 119.433594 193.777344 116.511719 C 196.917969 113.246094 198.945312 109.316406 201.554688 106.082031 C 202.859375 104.464844 204.316406 103.007812 205.992188 101.945312 C 207.664062 100.886719 209.585938 100.226562 211.476562 100.242188 C 213.140625 100.253906 214.828125 100.789062 216.386719 101.609375 C 217.949219 102.433594 219.398438 103.546875 220.832031 104.742188 C 223.703125 107.140625 226.644531 110 230.589844 111.269531 C 233.371094 112.160156 236.320312 112.121094 239.085938 111.601562 C 241.839844 111.085938 244.429688 110.113281 246.929688 109.121094 C 249.429688 108.128906 251.859375 107.109375 254.34375 106.425781 C 256.820312 105.746094 259.378906 105.414062 261.808594 105.769531 C 264.429688 106.15625 266.9375 107.367188 268.917969 109.148438 C 270.898438 110.929688 272.375 113.285156 273.164062 115.84375 C 273.957031 118.40625 274.078125 121.179688 273.570312 123.828125 C 273.058594 126.480469 271.917969 129.015625 270.316406 131.214844 C 268.296875 133.984375 265.511719 136.257812 262.792969 138.730469 C 260.074219 141.203125 257.335938 143.996094 255.828125 147.601562 C 254.453125 150.890625 254.28125 154.375 253.882812 157.597656 C 253.480469 160.8125 252.773438 163.980469 250.902344 166.246094 C 249.128906 168.398438 246.324219 169.6875 243.417969 170.164062 C 242.324219 170.347656 241.207031 170.421875 240.074219 170.425781 Z M 236.660156 165.21875 C 237.640625 165.21875 238.628906 165.148438 239.621094 164.984375 C 242.273438 164.546875 244.933594 163.375 246.71875 161.210938 C 248.585938 158.941406 249.167969 156.039062 249.5 153.367188 C 249.832031 150.699219 249.992188 148.09375 250.929688 145.847656 C 251.960938 143.382812 253.929688 141.320312 256.046875 139.394531 C 258.167969 137.464844 260.507812 135.578125 262.308594 133.109375 C 263.742188 131.144531 264.765625 128.875 265.226562 126.476562 C 265.6875 124.078125 265.582031 121.5625 264.855469 119.210938 C 264.128906 116.859375 262.78125 114.699219 260.9375 113.042969 C 259.089844 111.382812 256.769531 110.257812 254.296875 109.894531 C 252.007812 109.558594 249.714844 109.878906 247.574219 110.464844 C 245.433594 111.050781 243.429688 111.898438 241.453125 112.683594 C 239.480469 113.46875 237.519531 114.195312 235.519531 114.566406 C 233.523438 114.941406 231.46875 114.953125 229.621094 114.359375 C 226.996094 113.515625 224.792969 111.445312 222.433594 109.476562 C 221.25 108.488281 219.992188 107.515625 218.558594 106.757812 C 217.121094 106 215.496094 105.464844 213.792969 105.453125 C 211.851562 105.4375 209.992188 106.101562 208.414062 107.101562 C 206.84375 108.097656 205.542969 109.414062 204.421875 110.800781 C 202.179688 113.578125 200.574219 116.664062 198.308594 119.023438 C 196.277344 121.132812 193.675781 122.730469 191.070312 124.414062 C 188.464844 126.101562 185.777344 127.945312 183.792969 130.546875 C 181.035156 134.167969 180.015625 138.882812 180.582031 143.335938 C 181.144531 147.777344 183.207031 151.910156 186.039062 155.308594 C 188.382812 158.113281 191.28125 160.480469 194.585938 162.105469 C 197.890625 163.734375 201.585938 164.605469 205.289062 164.496094 C 208.410156 164.40625 211.359375 163.65625 214.238281 163.386719 C 219.988281 162.84375 225.851562 164.101562 231.820312 164.859375 C 233.082031 165.019531 234.375 165.160156 235.679688 165.203125 C 236.003906 165.214844 236.332031 165.222656 236.660156 165.21875 Z M 236.648438 163.398438 C 236.347656 163.402344 236.042969 163.390625 235.742188 163.386719 C 234.523438 163.34375 233.289062 163.210938 232.050781 163.054688 C 226.191406 162.308594 220.191406 161 214.066406 161.574219 C 211 161.863281 208.089844 162.59375 205.238281 162.679688 C 201.855469 162.777344 198.445312 161.976562 195.394531 160.476562 C 192.339844 158.972656 189.632812 156.769531 187.441406 154.144531 C 184.796875 150.972656 182.902344 147.140625 182.390625 143.109375 C 181.878906 139.085938 182.820312 134.832031 185.246094 131.648438 C 186.996094 129.351562 189.492188 127.605469 192.066406 125.941406 C 194.644531 124.273438 197.378906 122.617188 199.625 120.285156 C 202.136719 117.671875 203.757812 114.527344 205.84375 111.941406 C 206.886719 110.652344 208.050781 109.484375 209.394531 108.636719 C 210.730469 107.789062 212.265625 107.261719 213.777344 107.273438 C 215.105469 107.28125 216.460938 107.707031 217.703125 108.363281 C 218.953125 109.023438 220.113281 109.914062 221.261719 110.871094 C 223.554688 112.789062 225.910156 115.074219 229.0625 116.089844 C 231.285156 116.804688 233.648438 116.769531 235.855469 116.355469 C 238.0625 115.945312 240.128906 115.164062 242.128906 114.371094 C 244.128906 113.578125 246.074219 112.761719 248.058594 112.21875 C 250.039062 111.675781 252.082031 111.40625 254.027344 111.691406 C 256.121094 112 258.128906 112.96875 259.714844 114.390625 C 261.296875 115.816406 262.476562 117.703125 263.109375 119.746094 C 263.742188 121.792969 263.839844 124.015625 263.433594 126.132812 C 263.023438 128.253906 262.113281 130.28125 260.832031 132.039062 C 259.214844 134.257812 256.988281 136.074219 254.816406 138.050781 C 252.640625 140.03125 250.449219 142.265625 249.246094 145.148438 C 248.144531 147.777344 248.011719 150.5625 247.6875 153.140625 C 247.367188 155.710938 246.800781 158.242188 245.304688 160.054688 C 243.886719 161.777344 241.648438 162.808594 239.324219 163.191406 C 238.445312 163.335938 237.554688 163.394531 236.648438 163.398438 Z M 233.378906 158.0625 C 234.125 158.0625 234.878906 158.003906 235.628906 157.882812 C 237.648438 157.550781 239.671875 156.65625 241.027344 155.011719 C 242.449219 153.285156 242.890625 151.078125 243.144531 149.046875 C 243.394531 147.019531 243.515625 145.039062 244.230469 143.328125 C 245.011719 141.457031 246.511719 139.886719 248.121094 138.421875 C 249.734375 136.953125 251.511719 135.523438 252.882812 133.644531 C 253.972656 132.148438 254.75 130.421875 255.101562 128.597656 C 255.453125 126.773438 255.371094 124.863281 254.816406 123.074219 C 254.265625 121.289062 253.242188 119.644531 251.839844 118.382812 C 250.4375 117.121094 248.667969 116.265625 246.789062 115.988281 C 245.050781 115.734375 243.308594 115.976562 241.679688 116.421875 C 240.050781 116.871094 238.527344 117.515625 237.023438 118.109375 C 235.523438 118.707031 234.03125 119.261719 232.511719 119.542969 C 230.996094 119.828125 229.433594 119.835938 228.027344 119.386719 C 226.03125 118.742188 224.355469 117.171875 222.5625 115.671875 C 221.664062 114.921875 220.707031 114.179688 219.617188 113.605469 C 218.523438 113.027344 217.289062 112.621094 215.988281 112.613281 C 214.515625 112.601562 213.101562 113.105469 211.898438 113.863281 C 210.703125 114.621094 209.71875 115.625 208.863281 116.679688 C 207.160156 118.792969 205.9375 121.140625 204.214844 122.933594 C 202.671875 124.535156 200.695312 125.75 198.714844 127.03125 C 196.730469 128.316406 194.6875 129.714844 193.175781 131.695312 C 191.078125 134.449219 190.304688 138.03125 190.734375 141.417969 C 191.164062 144.796875 192.730469 147.941406 194.886719 150.523438 C 196.667969 152.65625 198.875 154.457031 201.386719 155.691406 C 203.898438 156.929688 206.707031 157.59375 209.523438 157.511719 C 211.898438 157.441406 214.140625 156.871094 216.332031 156.664062 C 220.703125 156.253906 225.160156 157.207031 229.699219 157.785156 C 230.660156 157.90625 231.640625 158.015625 232.632812 158.050781 C 232.878906 158.058594 233.128906 158.0625 233.378906 158.0625 Z M 233.371094 156.675781 C 233.140625 156.675781 232.910156 156.675781 232.679688 156.664062 C 231.753906 156.632812 230.816406 156.535156 229.875 156.414062 C 225.417969 155.847656 220.855469 154.851562 216.199219 155.289062 C 213.867188 155.507812 211.652344 156.0625 209.484375 156.128906 C 206.914062 156.203125 204.320312 155.597656 202 154.453125 C 199.679688 153.3125 197.617188 151.632812 195.953125 149.636719 C 193.941406 147.226562 192.5 144.3125 192.113281 141.246094 C 191.722656 138.1875 192.4375 134.953125 194.28125 132.53125 C 195.613281 130.785156 197.511719 129.457031 199.46875 128.191406 C 201.429688 126.925781 203.507812 125.664062 205.214844 123.890625 C 207.125 121.902344 208.359375 119.511719 209.945312 117.546875 C 210.738281 116.566406 211.625 115.679688 212.644531 115.03125 C 213.660156 114.386719 214.828125 113.988281 215.976562 113.996094 C 216.988281 114.003906 218.019531 114.328125 218.964844 114.828125 C 219.917969 115.328125 220.800781 116.003906 221.671875 116.730469 C 223.414062 118.191406 225.203125 119.929688 227.601562 120.703125 C 229.292969 121.246094 231.085938 121.21875 232.769531 120.902344 C 234.445312 120.589844 236.015625 120 237.539062 119.394531 C 239.058594 118.792969 240.539062 118.171875 242.046875 117.757812 C 243.554688 117.34375 245.109375 117.140625 246.585938 117.355469 C 248.179688 117.589844 249.707031 118.328125 250.910156 119.410156 C 252.113281 120.492188 253.011719 121.925781 253.492188 123.484375 C 253.972656 125.039062 254.046875 126.726562 253.738281 128.339844 C 253.429688 129.949219 252.734375 131.492188 251.761719 132.828125 C 250.53125 134.515625 248.839844 135.898438 247.1875 137.398438 C 245.53125 138.90625 243.863281 140.605469 242.949219 142.796875 C 242.113281 144.796875 242.011719 146.914062 241.765625 148.875 C 241.523438 150.828125 241.089844 152.753906 239.953125 154.132812 C 238.875 155.441406 237.171875 156.226562 235.40625 156.515625 C 234.738281 156.625 234.058594 156.671875 233.371094 156.675781 Z M 233.371094 156.675781 " fill-opacity="1" fill-rule="nonzero"/></g></svg>