<svg xmlns="http://www.w3.org/2000/svg" xmlns:xlink="http://www.w3.org/1999/xlink" width="450" zoomAndPan="magnify" viewBox="0 0 337.5 187.499995" height="250" preserveAspectRatio="xMidYMid meet" version="1.0"><defs><filter x="0%" y="0%" width="100%" height="100%" id="8fc2854af9"><feColorMatrix values="0 0 0 0 1 0 0 0 0 1 0 0 0 0 1 0 0 0 1 0" color-interpolation-filters="sRGB"/></filter><clipPath id="280c7c7cce"><path d="M 241 104 L 336.800781 104 L 336.800781 187 L 241 187 Z M 241 104 " clip-rule="nonzero"/></clipPath><mask id="81b9560d8e"><g filter="url(#8fc2854af9)"><rect x="-33.75" width="405" fill="#000000" y="-18.749999" height="224.999994" fill-opacity="0.8"/></g></mask><clipPath id="07398d437b"><path d="M 0.476562 0.363281 L 95.261719 0.363281 L 95.261719 82.460938 L 0.476562 82.460938 Z M 0.476562 0.363281 " clip-rule="nonzero"/></clipPath><clipPath id="e6ea14c25d"><rect x="0" width="96" y="0" height="83"/></clipPath><clipPath id="86d016c4cb"><path d="M 182.328125 17.078125 L 299 17.078125 L 299 142.929688 L 182.328125 142.929688 Z M 182.328125 17.078125 " clip-rule="nonzero"/></clipPath><clipPath id="bcd60b18fa"><path d="M 0.199219 0 L 119 0 L 119 80 L 0.199219 80 Z M 0.199219 0 " clip-rule="nonzero"/></clipPath><mask id="ee813cd466"><g filter="url(#8fc2854af9)"><rect x="-33.75" width="405" fill="#000000" y="-18.749999" height="224.999994" fill-opacity="0.8"/></g></mask><clipPath id="92ed965c39"><path d="M 0.199219 0 L 101 0 L 101 79.945312 L 0.199219 79.945312 Z M 0.199219 0 " clip-rule="nonzero"/></clipPath><clipPath id="91b8dcf611"><path d="M 0.199219 0 L 118.558594 0 L 118.558594 79 L 0.199219 79 Z M 0.199219 0 " clip-rule="nonzero"/></clipPath><clipPath id="a71dd6dd17"><rect x="0" width="119" y="0" height="80"/></clipPath><clipPath id="124f64b356"><path d="M 3 112.367188 L 106.9375 112.367188 L 106.9375 187 L 3 187 Z M 3 112.367188 " clip-rule="nonzero"/></clipPath></defs><g clip-path="url(#280c7c7cce)"><g mask="url(#81b9560d8e)"><g transform="matrix(1, 0, 0, 1, 241, 104)"><g clip-path="url(#e6ea14c25d)"><g clip-path="url(#07398d437b)"><path fill="#94d0b1" d="M 12.941406 17.292969 C 10.09375 17.285156 7.0625 17.0625 4.609375 18.613281 C 0.914062 20.945312 0.0585938 26.53125 1.355469 30.921875 C 2.65625 35.316406 5.554688 38.90625 8.039062 42.664062 C 10.523438 46.417969 12.71875 50.8125 12.257812 55.394531 C 11.957031 58.394531 10.535156 61.1875 10.421875 64.203125 C 10.265625 68.335938 12.664062 72.195312 15.761719 74.648438 C 18.859375 77.101562 22.59375 78.402344 26.257812 79.660156 C 31.265625 81.382812 36.566406 83.121094 41.691406 81.863281 C 50.449219 79.710938 55.917969 69.546875 64.605469 67.082031 C 70.476562 65.414062 76.871094 67.574219 82.707031 65.773438 C 88.996094 63.828125 93.523438 57.363281 94.734375 50.441406 C 95.945312 43.519531 94.242188 36.304688 91.238281 30.046875 C 88.234375 23.789062 83.996094 18.335938 79.789062 12.941406 C 76.28125 8.441406 72.53125 3.753906 67.398438 1.757812 C 61.253906 -0.628906 54.269531 1.164062 48.347656 3.472656 C 44.433594 4.996094 41.21875 7.894531 37.683594 10.171875 C 33.898438 12.613281 29.601562 14.386719 25.339844 15.578125 C 21.296875 16.710938 17.117188 17.300781 12.941406 17.292969 " fill-opacity="1" fill-rule="nonzero"/></g></g></g></g></g><g clip-path="url(#86d016c4cb)"><path fill="#ffffff" d="M 214.671875 17.078125 C 214.3125 17.074219 213.949219 17.082031 213.589844 17.105469 C 212.628906 17.167969 211.675781 17.328125 210.746094 17.585938 C 207.046875 18.613281 203.875 21.101562 201.792969 24.265625 C 199.71875 27.425781 198.730469 31.195312 198.710938 34.929688 C 198.691406 38.660156 199.617188 42.332031 201.140625 45.6875 C 202.53125 48.746094 204.367188 51.488281 205.957031 54.277344 C 207.546875 57.066406 208.90625 59.964844 209.328125 62.992188 C 209.75 66.015625 209.230469 69.160156 208.101562 72.0625 C 206.96875 74.96875 205.246094 77.65625 203.261719 80.148438 C 199.292969 85.136719 194.257812 89.398438 190.234375 94.675781 C 187.128906 98.746094 184.683594 103.394531 183.519531 108.429688 C 182.351562 113.46875 182.507812 118.878906 184.410156 123.75 C 186.3125 128.625 190.011719 132.863281 194.84375 135.046875 C 197.257812 136.136719 199.914062 136.703125 202.574219 136.632812 C 205.238281 136.5625 207.886719 135.851562 210.207031 134.515625 C 214.398438 132.109375 217.074219 128.046875 219.726562 124.402344 C 221.050781 122.585938 222.40625 120.828125 223.976562 119.328125 C 225.539062 117.832031 227.339844 116.59375 229.320312 115.925781 C 232.78125 114.761719 236.769531 115.386719 240.144531 117.066406 C 243.535156 118.753906 246.414062 121.429688 249.015625 124.347656 C 251.621094 127.269531 254.003906 130.46875 256.777344 133.410156 C 259.554688 136.355469 262.785156 139.070312 266.667969 140.617188 C 272.542969 142.953125 279.367188 142.265625 284.867188 139.242188 C 290.351562 136.226562 294.449219 131.054688 296.574219 125.230469 C 299.914062 116.089844 298.492188 106.214844 298.285156 96.882812 C 298.140625 90.246094 298.609375 83.496094 297.863281 76.730469 C 297.117188 69.953125 295.023438 63.003906 290.324219 57.828125 C 285.664062 52.691406 279.179688 49.925781 274.898438 45.199219 C 272.746094 42.820312 271.109375 39.929688 269.3125 37.066406 C 267.515625 34.199219 265.492188 31.285156 262.644531 29.15625 C 259.800781 27.03125 256.386719 25.890625 252.980469 25.328125 C 249.578125 24.769531 246.160156 24.765625 242.8125 24.761719 C 239.464844 24.761719 236.152344 24.761719 232.945312 24.265625 C 229.742188 23.765625 226.613281 22.746094 224.0625 20.910156 C 223.363281 20.40625 222.660156 19.796875 221.835938 19.242188 C 219.714844 17.824219 217.199219 17.109375 214.671875 17.078125 Z M 214.644531 18.996094 C 216.820312 19.027344 218.984375 19.636719 220.761719 20.832031 C 221.460938 21.300781 222.152344 21.890625 222.941406 22.457031 C 225.816406 24.53125 229.242188 25.625 232.648438 26.15625 C 236.054688 26.683594 239.46875 26.675781 242.8125 26.675781 C 246.15625 26.675781 249.46875 26.691406 252.667969 27.214844 C 255.863281 27.742188 258.980469 28.804688 261.492188 30.683594 C 264.015625 32.570312 265.921875 35.269531 267.683594 38.078125 C 269.449219 40.890625 271.128906 43.894531 273.476562 46.484375 C 278.132812 51.625 284.617188 54.390625 288.902344 59.113281 C 293.214844 63.863281 295.238281 70.410156 295.957031 76.9375 C 296.675781 83.480469 296.21875 90.171875 296.367188 96.925781 C 296.578125 106.414062 297.894531 116.023438 294.773438 124.578125 C 292.792969 129.996094 288.964844 134.808594 283.9375 137.570312 C 278.925781 140.328125 272.65625 140.9375 267.382812 138.839844 C 263.878906 137.445312 260.847656 134.933594 258.175781 132.101562 C 255.503906 129.265625 253.128906 126.082031 250.449219 123.078125 C 247.769531 120.070312 244.726562 117.210938 241 115.355469 C 237.261719 113.492188 232.777344 112.742188 228.703125 114.113281 C 226.378906 114.898438 224.359375 116.3125 222.644531 117.949219 C 220.9375 119.582031 219.519531 121.4375 218.175781 123.28125 C 215.492188 126.964844 212.929688 130.746094 209.25 132.859375 C 207.222656 134.023438 204.878906 134.660156 202.523438 134.722656 C 200.171875 134.785156 197.792969 134.28125 195.636719 133.304688 C 191.324219 131.355469 187.933594 127.5 186.199219 123.054688 C 184.457031 118.601562 184.296875 113.566406 185.390625 108.859375 C 186.480469 104.144531 188.789062 99.726562 191.761719 95.832031 C 195.617188 90.777344 200.640625 86.523438 204.765625 81.335938 C 206.828125 78.742188 208.667969 75.902344 209.890625 72.753906 C 211.117188 69.605469 211.707031 66.140625 211.230469 62.730469 C 210.753906 59.316406 209.261719 56.207031 207.625 53.335938 C 205.992188 50.464844 204.195312 47.769531 202.890625 44.898438 C 201.464844 41.753906 200.609375 38.34375 200.628906 34.9375 C 200.644531 31.539062 201.554688 28.125 203.402344 25.316406 C 205.242188 22.511719 208.066406 20.316406 211.261719 19.429688 C 212.058594 19.207031 212.882812 19.070312 213.710938 19.019531 C 214.019531 19 214.332031 18.992188 214.644531 18.996094 Z M 220.375 30.726562 C 220.09375 30.722656 219.8125 30.730469 219.53125 30.75 C 218.777344 30.796875 218.03125 30.921875 217.308594 31.125 C 214.414062 31.925781 211.9375 33.871094 210.3125 36.347656 C 208.6875 38.816406 207.914062 41.761719 207.898438 44.679688 C 207.886719 47.59375 208.609375 50.460938 209.800781 53.085938 C 210.886719 55.476562 212.320312 57.621094 213.5625 59.800781 C 214.804688 61.976562 215.867188 64.242188 216.199219 66.609375 C 216.527344 68.96875 216.121094 71.429688 215.238281 73.699219 C 214.355469 75.96875 213.007812 78.070312 211.457031 80.015625 C 208.355469 83.914062 204.421875 87.246094 201.273438 91.371094 C 198.847656 94.550781 196.941406 98.183594 196.027344 102.117188 C 195.113281 106.054688 195.238281 110.285156 196.726562 114.089844 C 198.214844 117.902344 201.105469 121.214844 204.878906 122.921875 C 206.765625 123.773438 208.839844 124.214844 210.921875 124.160156 C 213.003906 124.105469 215.074219 123.546875 216.886719 122.503906 C 220.160156 120.621094 222.253906 117.449219 224.328125 114.601562 C 225.363281 113.183594 226.417969 111.808594 227.644531 110.636719 C 228.867188 109.46875 230.273438 108.5 231.820312 107.976562 C 234.527344 107.066406 237.644531 107.554688 240.28125 108.867188 C 242.929688 110.1875 245.179688 112.277344 247.214844 114.558594 C 249.25 116.839844 251.113281 119.34375 253.28125 121.640625 C 255.453125 123.941406 257.976562 126.0625 261.011719 127.273438 C 265.601562 129.097656 270.933594 128.5625 275.230469 126.199219 C 279.519531 123.839844 282.71875 119.796875 284.382812 115.25 C 286.992188 108.105469 285.878906 100.386719 285.71875 93.09375 C 285.605469 87.910156 285.96875 82.632812 285.386719 77.347656 C 284.804688 72.050781 283.167969 66.621094 279.496094 62.574219 C 275.855469 58.558594 270.789062 56.394531 267.441406 52.703125 C 265.757812 50.847656 264.480469 48.585938 263.078125 46.347656 C 261.671875 44.105469 260.09375 41.832031 257.863281 40.164062 C 255.644531 38.503906 252.976562 37.613281 250.3125 37.175781 C 247.652344 36.738281 244.980469 36.734375 242.367188 36.734375 C 239.75 36.730469 237.160156 36.734375 234.65625 36.34375 C 232.152344 35.957031 229.707031 35.15625 227.714844 33.722656 C 227.167969 33.328125 226.617188 32.851562 225.972656 32.417969 C 224.316406 31.308594 222.351562 30.75 220.375 30.726562 Z M 220.351562 32.226562 C 222.054688 32.25 223.742188 32.726562 225.132812 33.660156 C 225.679688 34.027344 226.21875 34.488281 226.835938 34.933594 C 229.082031 36.550781 231.757812 37.40625 234.421875 37.820312 C 237.085938 38.234375 239.75 38.226562 242.367188 38.226562 C 244.980469 38.226562 247.566406 38.238281 250.066406 38.648438 C 252.566406 39.058594 255 39.894531 256.964844 41.359375 C 258.933594 42.835938 260.425781 44.941406 261.804688 47.140625 C 263.183594 49.335938 264.496094 51.683594 266.328125 53.707031 C 269.96875 57.726562 275.039062 59.886719 278.386719 63.578125 C 281.753906 67.289062 283.335938 72.40625 283.898438 77.507812 C 284.460938 82.621094 284.101562 87.851562 284.21875 93.125 C 284.382812 100.542969 285.414062 108.054688 282.972656 114.738281 C 281.425781 118.972656 278.433594 122.730469 274.507812 124.890625 C 270.585938 127.042969 265.6875 127.523438 261.566406 125.882812 C 258.828125 124.792969 256.460938 122.832031 254.375 120.617188 C 252.285156 118.402344 250.429688 115.914062 248.335938 113.566406 C 246.238281 111.214844 243.859375 108.980469 240.949219 107.53125 C 238.027344 106.074219 234.523438 105.488281 231.339844 106.5625 C 229.523438 107.171875 227.945312 108.277344 226.605469 109.558594 C 225.269531 110.835938 224.160156 112.285156 223.113281 113.726562 C 221.015625 116.605469 219.011719 119.558594 216.136719 121.210938 C 214.550781 122.121094 212.71875 122.617188 210.878906 122.667969 C 209.039062 122.714844 207.183594 122.320312 205.5 121.558594 C 202.128906 120.035156 199.476562 117.023438 198.121094 113.546875 C 196.761719 110.066406 196.636719 106.132812 197.488281 102.453125 C 198.34375 98.769531 200.148438 95.316406 202.46875 92.273438 C 205.484375 88.324219 209.40625 84.996094 212.632812 80.945312 C 214.242188 78.917969 215.679688 76.699219 216.636719 74.238281 C 217.59375 71.777344 218.058594 69.070312 217.683594 66.402344 C 217.3125 63.734375 216.148438 61.304688 214.867188 59.0625 C 213.589844 56.820312 212.183594 54.710938 211.167969 52.46875 C 210.050781 50.011719 209.386719 47.347656 209.398438 44.6875 C 209.414062 42.027344 210.125 39.359375 211.566406 37.164062 C 213.003906 34.972656 215.210938 33.257812 217.710938 32.5625 C 218.332031 32.390625 218.976562 32.285156 219.621094 32.246094 C 219.867188 32.230469 220.109375 32.222656 220.351562 32.226562 Z M 225.625 43.78125 C 224.933594 43.792969 224.246094 43.890625 223.582031 44.074219 C 221.464844 44.664062 219.648438 46.085938 218.457031 47.898438 C 217.269531 49.707031 216.699219 51.863281 216.691406 54.003906 C 216.679688 56.136719 217.210938 58.242188 218.082031 60.164062 C 218.878906 61.914062 219.929688 63.484375 220.839844 65.078125 C 221.75 66.675781 222.527344 68.335938 222.769531 70.070312 C 223.011719 71.796875 222.714844 73.601562 222.066406 75.261719 C 221.421875 76.925781 220.433594 78.460938 219.296875 79.890625 C 217.023438 82.746094 214.144531 85.183594 211.835938 88.207031 C 210.0625 90.535156 208.664062 93.199219 207.996094 96.082031 C 207.324219 98.964844 207.414062 102.0625 208.503906 104.851562 C 209.59375 107.644531 211.710938 110.070312 214.476562 111.320312 C 215.859375 111.945312 217.378906 112.269531 218.90625 112.226562 C 220.429688 112.1875 221.945312 111.777344 223.273438 111.015625 C 225.671875 109.636719 227.207031 107.3125 228.722656 105.226562 C 229.480469 104.1875 230.257812 103.175781 231.15625 102.320312 C 232.050781 101.464844 233.082031 100.753906 234.214844 100.371094 C 236.195312 99.703125 238.480469 100.0625 240.410156 101.027344 C 242.351562 101.992188 244 103.523438 245.492188 105.195312 C 246.980469 106.867188 248.347656 108.699219 249.933594 110.382812 C 251.523438 112.070312 253.375 113.621094 255.597656 114.507812 C 258.960938 115.84375 262.867188 115.453125 266.015625 113.722656 C 269.15625 111.996094 271.5 109.035156 272.71875 105.699219 C 274.628906 100.46875 273.816406 94.8125 273.699219 89.472656 C 273.613281 85.671875 273.882812 81.808594 273.457031 77.933594 C 273.03125 74.054688 271.828125 70.078125 269.140625 67.113281 C 266.46875 64.171875 262.757812 62.589844 260.308594 59.882812 C 259.074219 58.523438 258.136719 56.867188 257.109375 55.226562 C 256.082031 53.585938 254.925781 51.917969 253.292969 50.699219 C 251.667969 49.480469 249.710938 48.828125 247.761719 48.507812 C 245.8125 48.1875 243.855469 48.183594 241.9375 48.183594 C 240.023438 48.183594 238.125 48.183594 236.289062 47.898438 C 234.457031 47.613281 232.664062 47.027344 231.207031 45.976562 C 230.804688 45.6875 230.402344 45.339844 229.929688 45.023438 C 229.003906 44.402344 227.949219 44.019531 226.859375 43.863281 C 226.449219 43.804688 226.039062 43.777344 225.625 43.785156 Z M 225.632812 44.878906 C 225.992188 44.875 226.347656 44.898438 226.699219 44.949219 C 227.636719 45.082031 228.539062 45.410156 229.316406 45.929688 C 229.714844 46.199219 230.109375 46.539062 230.5625 46.863281 C 232.207031 48.050781 234.167969 48.675781 236.121094 48.980469 C 238.070312 49.28125 240.023438 49.277344 241.9375 49.277344 C 243.851562 49.277344 245.75 49.285156 247.582031 49.585938 C 249.410156 49.886719 251.195312 50.496094 252.632812 51.574219 C 254.078125 52.652344 255.167969 54.199219 256.179688 55.808594 C 257.1875 57.417969 258.148438 59.132812 259.492188 60.617188 C 262.160156 63.5625 265.871094 65.144531 268.324219 67.847656 C 270.792969 70.566406 271.953125 74.3125 272.363281 78.054688 C 272.777344 81.796875 272.515625 85.628906 272.597656 89.496094 C 272.71875 94.925781 273.472656 100.429688 271.683594 105.324219 C 270.550781 108.429688 268.363281 111.183594 265.484375 112.761719 C 262.613281 114.34375 259.023438 114.691406 256.003906 113.492188 C 254 112.691406 252.265625 111.253906 250.734375 109.632812 C 249.203125 108.011719 247.847656 106.1875 246.3125 104.46875 C 244.777344 102.746094 243.035156 101.105469 240.902344 100.046875 C 238.757812 98.980469 236.195312 98.550781 233.863281 99.335938 C 232.53125 99.785156 231.375 100.59375 230.394531 101.53125 C 229.414062 102.464844 228.601562 103.527344 227.832031 104.582031 C 226.296875 106.691406 224.828125 108.855469 222.722656 110.066406 C 221.5625 110.734375 220.222656 111.097656 218.875 111.132812 C 217.527344 111.167969 216.164062 110.882812 214.929688 110.324219 C 212.460938 109.207031 210.519531 107 209.527344 104.453125 C 208.53125 101.90625 208.4375 99.023438 209.0625 96.328125 C 209.691406 93.628906 211.011719 91.101562 212.710938 88.871094 C 214.921875 85.976562 217.792969 83.539062 220.15625 80.570312 C 221.339844 79.085938 222.390625 77.457031 223.09375 75.65625 C 223.792969 73.851562 224.132812 71.871094 223.859375 69.917969 C 223.585938 67.964844 222.730469 66.183594 221.796875 64.539062 C 220.859375 62.898438 219.832031 61.351562 219.085938 59.710938 C 218.265625 57.910156 217.78125 55.957031 217.789062 54.007812 C 217.800781 52.0625 218.320312 50.105469 219.375 48.5 C 220.429688 46.894531 222.046875 45.636719 223.878906 45.128906 C 224.445312 44.96875 225.039062 44.886719 225.632812 44.878906 Z M 225.632812 44.878906 " fill-opacity="1" fill-rule="nonzero"/></g><g clip-path="url(#bcd60b18fa)"><g mask="url(#ee813cd466)"><g transform="matrix(1, 0, 0, 1, 0.000000000000000028, 0)"><g clip-path="url(#a71dd6dd17)"><g clip-path="url(#92ed965c39)"><path fill="#ffffff" d="M 0.199219 0.015625 L 0.199219 63.738281 C 1.851562 65.835938 3.507812 67.933594 5.160156 70.03125 C 8.652344 74.457031 12.796875 79.25 18.410156 79.6875 C 24.226562 80.140625 29.363281 75.542969 31.996094 70.332031 C 34.632812 65.121094 35.5 59.207031 37.476562 53.710938 C 39.449219 48.214844 43.042969 42.730469 48.628906 41.050781 C 53.816406 39.492188 59.703125 41.53125 64.6875 39.402344 C 69.382812 37.394531 71.894531 32.273438 73.367188 27.375 C 74.839844 22.480469 75.753906 17.226562 78.835938 13.152344 C 81.09375 10.171875 84.320312 8.09375 87.582031 6.265625 C 91.875 3.855469 96.347656 1.765625 100.949219 0.015625 Z M 0.199219 0.015625 " fill-opacity="1" fill-rule="nonzero"/></g><g clip-path="url(#91b8dcf611)"><path fill="#c8e7d7" d="M 0.199219 0.015625 L 0.199219 78.765625 C 6.648438 78.878906 14.320312 74.921875 17.660156 70.882812 C 21.703125 65.992188 23.316406 59.601562 25.410156 53.609375 C 27.503906 47.613281 30.550781 41.417969 36.148438 38.429688 C 42.511719 35.035156 50.585938 36.644531 57.09375 33.527344 C 66.34375 29.097656 69.1875 16.988281 77.332031 10.75 C 87.335938 3.085938 101.835938 6.433594 113.71875 2.246094 C 115.398438 1.65625 117.015625 0.90625 118.558594 0.015625 Z M 0.199219 0.015625 " fill-opacity="1" fill-rule="nonzero"/></g></g></g></g></g><g clip-path="url(#124f64b356)"><path fill="#ffffff" d="M 5.902344 124.992188 C 7.628906 120.425781 11.011719 116.160156 15.714844 114.429688 C 21.292969 112.378906 27.238281 114.457031 32.371094 116.773438 C 37.429688 119.054688 42.496094 121.714844 48.160156 122.019531 C 50.671875 122.15625 53.203125 121.613281 55.460938 120.515625 C 57.769531 119.398438 59.730469 117.664062 62 116.453125 C 66.480469 114.0625 71.722656 112.964844 76.535156 115.0625 C 78.535156 115.933594 80.371094 117.3125 81.535156 119.179688 C 82.753906 121.128906 83.03125 123.398438 82.773438 125.648438 C 82.253906 130.1875 79.839844 134.433594 79.988281 139.066406 C 80.121094 143.265625 82.804688 146.253906 86.414062 148.089844 C 90.179688 150.007812 94.484375 150.886719 97.953125 153.382812 C 101.496094 155.933594 103.910156 159.878906 104.921875 164.085938 C 105.9375 168.308594 105.511719 172.890625 103.34375 176.695312 C 101.1875 180.484375 97.523438 183.316406 93.425781 184.75 C 89.308594 186.191406 84.761719 186.253906 80.703125 184.585938 C 75.960938 182.636719 72.199219 178.984375 67.683594 176.625 C 58.3125 171.722656 47.976562 175.28125 38.183594 176.535156 C 33.21875 177.171875 28.117188 177.1875 23.417969 175.265625 C 18.734375 173.347656 14.777344 169.855469 11.882812 165.757812 C 8.734375 161.304688 6.828125 156.113281 5.695312 150.816406 C 4.484375 145.15625 3.882812 139.152344 4.242188 133.367188 C 4.417969 130.507812 4.933594 127.695312 5.902344 124.992188 C 6.140625 124.335938 5.089844 124.050781 4.855469 124.703125 C 2.808594 130.402344 2.851562 136.542969 3.386719 142.496094 C 3.910156 148.332031 4.988281 154.171875 7.269531 159.59375 C 11.175781 168.882812 19.078125 176.765625 29.484375 177.863281 C 40.222656 179 50.746094 173.496094 61.445312 175.5625 C 66.839844 176.605469 70.957031 180.03125 75.433594 182.945312 C 79.441406 185.550781 83.757812 187.257812 88.613281 186.871094 C 97.300781 186.179688 105.195312 179.789062 106.371094 170.972656 C 106.945312 166.667969 105.992188 162.191406 103.84375 158.425781 C 101.621094 154.53125 98.261719 151.855469 94.160156 150.125 C 90.285156 148.492188 85.402344 147.402344 82.734375 143.886719 C 79.578125 139.722656 81.714844 134.449219 82.953125 130 C 84.15625 125.675781 84.664062 121.0625 81.5625 117.390625 C 78.789062 114.109375 74.132812 112.539062 69.910156 112.867188 C 67.296875 113.070312 64.773438 113.882812 62.429688 115.019531 C 59.875 116.257812 57.738281 118.128906 55.238281 119.417969 C 49.546875 122.359375 43.085938 120.421875 37.582031 118 C 32.253906 115.65625 26.964844 112.636719 20.984375 112.507812 C 15.910156 112.398438 11.367188 114.792969 8.230469 118.707031 C 6.78125 120.515625 5.671875 122.539062 4.855469 124.703125 C 4.609375 125.359375 5.660156 125.640625 5.902344 124.992188 Z M 5.902344 124.992188 " fill-opacity="1" fill-rule="nonzero"/></g></svg>