<svg xmlns="http://www.w3.org/2000/svg" xmlns:xlink="http://www.w3.org/1999/xlink" width="450" zoomAndPan="magnify" viewBox="0 0 337.5 187.499995" height="250" preserveAspectRatio="xMidYMid meet" version="1.0"><defs><clipPath id="6e0e28e4af"><path d="M 0.199219 0 L 120.769531 0 L 120.769531 71.339844 L 0.199219 71.339844 Z M 0.199219 0 " clip-rule="nonzero"/></clipPath><clipPath id="69f9182e50"><path d="M 265 112.367188 L 336.800781 112.367188 L 336.800781 187 L 265 187 Z M 265 112.367188 " clip-rule="nonzero"/></clipPath><clipPath id="43d158048f"><path d="M 300.933594 0 L 336.800781 0 L 336.800781 57.867188 L 300.933594 57.867188 Z M 300.933594 0 " clip-rule="nonzero"/></clipPath><clipPath id="4202a63c16"><path d="M 19 95 L 106.574219 95 L 106.574219 168 L 19 168 Z M 19 95 " clip-rule="nonzero"/></clipPath></defs><g clip-path="url(#6e0e28e4af)"><path fill="#fffab3" d="M 106.84375 16.917969 C 99.835938 18.984375 92.371094 16.917969 85.273438 15.191406 C 76.039062 12.949219 66.648438 11.292969 57.171875 10.601562 C 53.097656 10.300781 48.835938 10.214844 45.136719 11.941406 C 41.4375 13.667969 38.523438 17.738281 39.421875 21.722656 C 39.777344 23.3125 40.683594 24.71875 41.226562 26.253906 C 43.539062 32.824219 37.191406 40.730469 30.277344 39.894531 C 24.933594 39.242188 19.875 34.496094 14.855469 36.449219 C 11.105469 37.914062 9.628906 42.523438 9.734375 46.546875 C 9.835938 50.570312 11.027344 54.570312 10.554688 58.566406 C 9.683594 65.933594 2.164062 71.347656 -5.0625 71.199219 L -5.0625 -3.570312 L 120.152344 -3.570312 C 120.738281 5.113281 115.351562 14.40625 106.84375 16.917969 Z M 106.84375 16.917969 " fill-opacity="1" fill-rule="nonzero"/></g><g clip-path="url(#69f9182e50)"><path fill="#fff570" d="M 324.957031 116.285156 C 330.542969 119.9375 333.929688 126.933594 335.511719 133.800781 C 337.09375 140.625 336.875 147.3125 335.820312 153.785156 C 334.808594 160.296875 333.003906 166.59375 329.355469 172.050781 C 325.703125 177.507812 320.292969 182.128906 313.875 184.550781 C 307.410156 187.015625 300.019531 187.277344 293.6875 184.945312 C 287.398438 182.570312 282.164062 177.59375 277.371094 172.136719 C 272.578125 166.722656 268.179688 160.871094 266.464844 154.136719 C 264.707031 147.402344 265.585938 139.789062 268.664062 133.230469 C 271.742188 126.671875 277.019531 121.167969 283.265625 117.824219 C 289.464844 114.480469 296.679688 113.292969 304.15625 112.851562 C 311.632812 112.367188 319.371094 112.675781 324.957031 116.285156 Z M 324.957031 116.285156 " fill-opacity="1" fill-rule="nonzero"/></g><g clip-path="url(#43d158048f)"><path fill="#fff45a" d="M 300.925781 -8.019531 C 300.925781 -8.019531 302.117188 12.464844 323.242188 13.640625 C 344.363281 14.8125 330.523438 33.972656 331.273438 43.3125 C 332.164062 54.289062 340.792969 57.847656 340.792969 57.847656 L 340.792969 -8.019531 Z M 300.925781 -8.019531 " fill-opacity="1" fill-rule="nonzero"/></g><g clip-path="url(#4202a63c16)"><path fill="#fff671" d="M 36.839844 145.089844 C 32.796875 148.195312 31.171875 153.582031 32.230469 158.488281 C 33.328125 163.566406 37.410156 167.1875 42.550781 167.867188 C 47.691406 168.550781 52.984375 166.378906 55.707031 161.90625 C 57.34375 159.21875 58.183594 155.988281 60.390625 153.667969 C 62.765625 151.171875 66.382812 150.585938 69.683594 150.878906 C 73.660156 151.226562 77.457031 152.667969 81.398438 153.253906 C 85.144531 153.8125 88.953125 153.882812 92.714844 153.453125 C 97.933594 152.855469 106.398438 151.316406 106.507812 144.570312 C 106.558594 141.417969 104.847656 138.203125 102.992188 135.75 C 101.160156 133.335938 98.683594 131.476562 95.636719 130.964844 C 88.136719 129.710938 82.066406 135.21875 75.179688 136.953125 C 71.851562 137.789062 67.765625 137.828125 65.074219 135.378906 C 62.953125 133.449219 61.78125 130.105469 63.460938 127.535156 C 65.082031 125.050781 68.386719 124.597656 71.121094 124.632812 C 74.027344 124.667969 76.875 125.351562 79.789062 125.207031 C 82.371094 125.078125 85.023438 124.335938 86.644531 122.195312 C 88.523438 119.714844 88.152344 116.492188 87.089844 113.753906 C 85.902344 110.6875 83.980469 107.898438 82.097656 105.214844 C 80.238281 102.570312 78.15625 100.054688 75.527344 98.132812 C 70.96875 94.800781 63.871094 93.636719 59.480469 97.898438 C 54.582031 102.65625 55.835938 110.1875 56.296875 116.246094 C 56.570312 119.78125 56.566406 123.449219 54.886719 126.671875 C 53.492188 129.339844 51.007812 131.617188 47.828125 131.601562 C 44.335938 131.582031 41.347656 129.054688 39.84375 126.070312 C 38.136719 122.6875 38.035156 118.832031 38.078125 115.125 C 38.121094 111.738281 38.144531 108.195312 36.460938 105.140625 C 35.128906 102.714844 32.792969 100.898438 29.933594 100.878906 C 23.582031 100.832031 19.855469 107.386719 19.445312 112.957031 C 19.210938 116.121094 19.863281 119.195312 20.925781 122.164062 C 21.859375 124.78125 22.925781 127.433594 24.613281 129.671875 C 26.207031 131.785156 28.214844 133.15625 30.804688 133.738281 C 33.425781 134.328125 36.070312 135.847656 37.675781 138.019531 C 38.375 138.96875 38.878906 140.101562 38.851562 141.292969 C 38.8125 142.863281 37.855469 144.140625 36.742188 145.164062 C 36.28125 145.585938 36.96875 146.265625 37.425781 145.847656 C 39.234375 144.183594 40.359375 141.898438 39.523438 139.453125 C 38.765625 137.234375 36.875 135.523438 34.902344 134.355469 C 33.847656 133.734375 32.699219 133.230469 31.511719 132.917969 C 30.199219 132.570312 28.996094 132.292969 27.851562 131.519531 C 25.597656 129.996094 24.179688 127.488281 23.101562 125.0625 C 20.613281 119.464844 18.949219 112.785156 22.078125 107.078125 C 23.566406 104.363281 26.300781 102.023438 29.523438 101.851562 C 32.804688 101.679688 35.214844 104.148438 36.269531 107.042969 C 37.546875 110.542969 37 114.359375 37.117188 118 C 37.222656 121.195312 37.761719 124.484375 39.402344 127.277344 C 42.25 132.125 48.699219 134.460938 53.238281 130.417969 C 58.300781 125.910156 57.480469 118.75 56.949219 112.710938 C 56.4375 106.855469 56.742188 98.730469 63.535156 96.574219 C 70.058594 94.503906 76.09375 98.980469 79.882812 103.835938 C 81.859375 106.363281 83.738281 109.117188 85.21875 111.964844 C 86.667969 114.75 87.992188 118.472656 86.0625 121.359375 C 84.363281 123.902344 81.09375 124.332031 78.269531 124.257812 C 75.515625 124.183594 72.8125 123.570312 70.050781 123.683594 C 67.671875 123.78125 65.097656 124.324219 63.382812 126.089844 C 61.636719 127.894531 61.289062 130.492188 62.167969 132.792969 C 64.476562 138.84375 71.667969 139.210938 77.003906 137.421875 C 83.410156 135.277344 90.363281 129.636719 97.445312 132.460938 C 100.484375 133.671875 102.585938 136.433594 104.035156 139.25 C 105.578125 142.246094 106.449219 146.027344 103.773438 148.664062 C 101.605469 150.800781 98.34375 151.542969 95.449219 152.078125 C 91.695312 152.769531 87.84375 152.9375 84.042969 152.605469 C 80.167969 152.261719 76.507812 151.128906 72.714844 150.367188 C 69.675781 149.757812 66.449219 149.523438 63.480469 150.585938 C 60.710938 151.578125 58.859375 153.621094 57.519531 156.164062 C 56.148438 158.765625 55.199219 161.683594 53.023438 163.761719 C 49.285156 167.328125 43.074219 168.054688 38.546875 165.609375 C 33.792969 163.042969 32 157.261719 33.292969 152.214844 C 33.925781 149.75 35.292969 147.484375 37.328125 145.921875 C 37.8125 145.546875 37.332031 144.710938 36.839844 145.089844 Z M 36.839844 145.089844 " fill-opacity="1" fill-rule="nonzero"/></g></svg>