<svg xmlns="http://www.w3.org/2000/svg" xmlns:xlink="http://www.w3.org/1999/xlink" width="450" zoomAndPan="magnify" viewBox="0 0 337.5 187.499995" height="250" preserveAspectRatio="xMidYMid meet" version="1.0"><defs><clipPath id="c53e997edf"><path d="M 0.199219 1 L 96 1 L 96 83 L 0.199219 83 Z M 0.199219 1 " clip-rule="nonzero"/></clipPath><clipPath id="bbdd6cf58f"><path d="M 276.574219 86.566406 L 336.800781 86.566406 L 336.800781 187 L 276.574219 187 Z M 276.574219 86.566406 " clip-rule="nonzero"/></clipPath><clipPath id="8137c16790"><path d="M 61 112.367188 L 131 112.367188 L 131 182 L 61 182 Z M 61 112.367188 " clip-rule="nonzero"/></clipPath><clipPath id="db89b2e61a"><path d="M 243 0 L 334 0 L 334 74.910156 L 243 74.910156 Z M 243 0 " clip-rule="nonzero"/></clipPath></defs><g clip-path="url(#c53e997edf)"><path fill="#f9a8c9" d="M 13.085938 17.988281 C 10.242188 17.984375 7.207031 17.761719 4.757812 19.308594 C 1.0625 21.644531 0.207031 27.226562 1.503906 31.621094 C 2.800781 36.015625 5.703125 39.601562 8.1875 43.359375 C 10.671875 47.117188 12.867188 51.511719 12.40625 56.09375 C 12.105469 59.09375 10.679688 61.886719 10.566406 64.898438 C 10.414062 69.035156 12.8125 72.894531 15.910156 75.347656 C 19.007812 77.800781 22.742188 79.101562 26.40625 80.359375 C 31.410156 82.078125 36.714844 83.816406 41.835938 82.558594 C 50.597656 80.410156 56.066406 70.246094 64.753906 67.78125 C 70.625 66.113281 77.015625 68.273438 82.851562 66.46875 C 89.140625 64.527344 93.667969 58.058594 94.882812 51.140625 C 96.09375 44.21875 94.390625 37 91.386719 30.746094 C 88.382812 24.488281 84.140625 19.035156 79.9375 13.640625 C 76.429688 9.140625 72.675781 4.449219 67.542969 2.457031 C 61.402344 0.0703125 54.417969 1.863281 48.496094 4.167969 C 44.582031 5.695312 41.363281 8.59375 37.832031 10.871094 C 34.046875 13.308594 29.75 15.082031 25.488281 16.277344 C 21.441406 17.410156 17.265625 17.996094 13.085938 17.988281 " fill-opacity="1" fill-rule="nonzero"/></g><g clip-path="url(#bbdd6cf58f)"><path fill="#ff76c2" d="M 276.5625 189.816406 C 276.5625 189.816406 278.429688 157.683594 311.570312 155.84375 C 344.714844 154.007812 322.996094 123.953125 324.171875 109.304688 C 325.574219 92.089844 339.109375 86.503906 339.109375 86.503906 L 339.109375 189.816406 Z M 276.5625 189.816406 " fill-opacity="1" fill-rule="nonzero"/></g><g clip-path="url(#8137c16790)"><path fill="#ff8ccb" d="M 73.710938 120.550781 C 78.433594 115.289062 85.625 112.386719 92.710938 112.925781 C 99.792969 113.570312 106.449219 117.652344 110.097656 123.667969 C 113.210938 128.714844 114.390625 135.050781 118.683594 139.242188 C 121.367188 141.820312 125.015625 143.214844 127.59375 146.007812 C 130.8125 149.445312 131.671875 154.710938 130.382812 159.328125 C 129.097656 163.839844 125.769531 167.707031 121.691406 170.179688 C 117.71875 172.648438 112.996094 174.046875 108.382812 174.691406 C 102.371094 175.550781 96.039062 175.441406 90.671875 172.648438 C 85.089844 169.75 81.332031 164.378906 78.328125 158.898438 C 76.179688 155.03125 74.355469 151.058594 72.101562 147.296875 C 70.707031 145.042969 68.988281 142.785156 68.238281 140.207031 C 66.519531 133.546875 69.417969 125.386719 73.710938 120.550781 Z M 123.300781 135.480469 C 124.160156 136.019531 125.230469 136.234375 126.089844 135.695312 C 126.949219 135.050781 126.949219 133.871094 126.734375 132.902344 C 126.199219 130.863281 124.910156 129.039062 123.085938 127.964844 C 121.046875 126.78125 119.757812 128.285156 120.082031 130.21875 C 120.292969 132.367188 121.367188 134.300781 123.300781 135.480469 Z M 64.480469 180.707031 C 65.339844 181.136719 66.414062 181.457031 67.164062 180.921875 C 68.023438 180.382812 68.023438 179.09375 67.808594 178.128906 C 67.273438 176.085938 65.984375 174.261719 64.160156 173.292969 C 62.121094 172.113281 60.941406 173.617188 61.15625 175.550781 C 61.476562 177.589844 62.550781 179.632812 64.480469 180.707031 Z M 64.480469 180.707031 " fill-opacity="1" fill-rule="nonzero"/></g><path fill="#ff76c2" d="M 104.730469 184.789062 C 90.5625 184.789062 76.289062 177.699219 68.453125 165.773438 C 68.238281 165.558594 68.347656 165.238281 68.5625 165.023438 C 68.773438 164.808594 69.097656 164.914062 69.3125 165.128906 C 79.1875 180.0625 99.363281 187.257812 116.429688 181.886719 C 121.691406 180.277344 125.554688 177.699219 128.023438 174.476562 C 130.921875 170.609375 131.566406 165.34375 129.523438 161.691406 C 127.378906 157.933594 123.191406 156.320312 118.792969 154.601562 C 116 153.527344 113.105469 152.453125 110.636719 150.734375 C 106.769531 147.941406 104.410156 143.753906 102.15625 139.777344 C 100.332031 136.554688 98.507812 133.226562 95.824219 130.648438 C 89.277344 124.203125 77.792969 123.667969 70.601562 129.253906 C 63.410156 134.945312 61.371094 146.332031 66.09375 154.171875 C 66.199219 154.386719 66.199219 154.710938 65.878906 154.925781 C 65.664062 155.03125 65.339844 155.03125 65.125 154.710938 C 60.082031 146.332031 62.226562 134.515625 69.847656 128.5 C 77.578125 122.378906 89.492188 123.023438 96.46875 129.894531 C 99.148438 132.582031 101.082031 136.019531 103.015625 139.242188 C 105.375 143.324219 107.523438 147.296875 111.171875 149.875 C 113.53125 151.488281 116.324219 152.5625 119.113281 153.636719 C 123.515625 155.246094 128.023438 156.964844 130.382812 161.15625 C 132.746094 165.238281 132.101562 170.824219 128.882812 175.121094 C 126.304688 178.558594 122.226562 181.136719 116.753906 182.855469 C 112.890625 184.144531 108.808594 184.789062 104.730469 184.789062 Z M 128.882812 136.878906 C 129.738281 136.234375 130.0625 134.945312 129.738281 133.546875 C 129.203125 131.398438 127.699219 129.359375 125.769531 128.285156 C 124.375 127.425781 123.40625 127.855469 122.976562 128.179688 C 122.226562 128.714844 121.796875 129.898438 122.011719 131.078125 C 122.335938 133.65625 123.621094 135.589844 125.554688 136.769531 C 126.199219 137.199219 126.949219 137.414062 127.484375 137.414062 C 128.023438 137.308594 128.453125 137.199219 128.882812 136.878906 Z M 126.089844 135.804688 C 124.480469 134.835938 123.300781 133.117188 122.976562 130.863281 C 122.871094 130.003906 123.085938 129.253906 123.515625 128.929688 C 123.945312 128.609375 124.480469 128.714844 125.230469 129.144531 C 126.949219 130.109375 128.238281 131.828125 128.667969 133.761719 C 128.882812 134.621094 128.882812 135.589844 128.238281 136.019531 C 127.699219 136.449219 126.734375 136.125 126.089844 135.804688 Z M 69.957031 182.101562 C 70.816406 181.457031 71.136719 180.277344 70.816406 178.773438 C 70.277344 176.625 68.882812 174.691406 66.949219 173.507812 C 65.554688 172.757812 64.589844 173.078125 64.160156 173.402344 C 63.410156 173.9375 62.980469 175.011719 63.195312 176.300781 C 63.515625 178.773438 64.804688 180.8125 66.734375 181.886719 C 67.378906 182.316406 68.023438 182.425781 68.667969 182.425781 C 69.097656 182.53125 69.527344 182.425781 69.957031 182.101562 Z M 66.304688 174.476562 C 68.023438 175.441406 69.203125 177.160156 69.742188 178.988281 C 69.957031 179.738281 69.957031 180.8125 69.3125 181.242188 C 68.773438 181.671875 67.808594 181.351562 67.164062 181.027344 C 65.554688 180.0625 64.480469 178.34375 64.160156 176.195312 C 64.050781 175.335938 64.265625 174.691406 64.695312 174.367188 C 64.804688 174.261719 65.019531 174.152344 65.234375 174.152344 C 65.554688 174.152344 65.984375 174.261719 66.304688 174.476562 Z M 66.304688 174.476562 " fill-opacity="1" fill-rule="nonzero"/><g clip-path="url(#db89b2e61a)"><path fill="#ffffff" d="M 328.332031 31.734375 C 332.164062 25.449219 335.527344 19.871094 326.683594 14.457031 C 317.371094 8.761719 294.816406 3.421875 277.882812 1.835938 C 274.679688 1.535156 271.691406 1.371094 268.925781 1.371094 C 257.0625 1.371094 249.527344 4.375 246.664062 12.367188 C 243.03125 22.492188 246.714844 40.886719 253.863281 53.992188 C 260.5625 66.273438 270.109375 73.558594 277.253906 73.558594 C 277.730469 73.558594 278.199219 73.527344 278.652344 73.460938 C 283.699219 72.734375 287.492188 67.9375 292.152344 61.953125 C 294.128906 59.417969 296.242188 56.703125 298.636719 54.121094 C 306.585938 45.5625 317.617188 38.511719 328.546875 31.515625 L 328.332031 31.734375 M 329.5 32.441406 C 329.445312 32.53125 329.371094 32.605469 329.285156 32.664062 C 318.316406 39.679688 307.445312 46.640625 299.636719 55.046875 C 297.289062 57.578125 295.210938 60.246094 293.226562 62.789062 C 288.707031 68.597656 284.558594 73.988281 278.847656 74.808594 C 278.324219 74.882812 277.792969 74.921875 277.253906 74.921875 C 269.332031 74.921875 259.433594 67.050781 252.664062 54.644531 C 245.4375 41.394531 241.554688 22.566406 245.378906 11.90625 C 248.554688 3.058594 256.921875 0.0078125 268.925781 0.0078125 C 271.742188 0.0078125 274.777344 0.175781 278.007812 0.480469 C 294.992188 2.070312 317.808594 7.429688 327.394531 13.296875 C 337.449219 19.449219 333.238281 26.300781 329.5 32.441406 Z M 329.5 32.441406 " fill-opacity="1" fill-rule="nonzero"/></g></svg>